<svg width="1440" height="287" viewBox="0 0 1440 287" fill="none" xmlns="http://www.w3.org/2000/svg">
<path fill-rule="evenodd" clip-rule="evenodd" d="M30 33.4495L0 23.1573V109V109.611V287H1440V109.611V109V97.2609L1410 95.2025H1410C1380 93.1438 1320 89.027 1260 78.735C1215 71.0159 1170 59.823 1125 48.6302C1110 44.8994 1095 41.1686 1080 37.5664C1020 23.1573 960 10.8068 900 4.63147C840 -1.54382 780 -1.54382 720 4.63147C660 10.8068 600 23.1573 540 39.6248C525 43.7416 510 48.1157 495.001 52.4899C450 65.6124 405 78.735 360 84.9103C300 93.144 240 89.0272 180 76.6766C120 64.326 60 43.7417 30 33.4495Z" fill="white"/>
</svg>
