<svg width="130" height="130" viewBox="0 0 130 130" fill="none" xmlns="http://www.w3.org/2000/svg">
<path d="M77.6666 42.4934V38.3334C77.6666 37.24 76.76 36.3334 75.6666 36.3334C74.5733 36.3334 73.6666 37.24 73.6666 38.3334V42.3334H56.3333V38.3334C56.3333 37.24 55.4266 36.3334 54.3333 36.3334C53.24 36.3334 52.3333 37.24 52.3333 38.3334V42.4934C45.1333 43.16 41.64 47.4534 41.1066 53.8267C41.0533 54.6 41.6933 55.24 42.44 55.24H87.56C88.3333 55.24 88.9733 54.5734 88.8933 53.8267C88.36 47.4534 84.8666 43.16 77.6666 42.4934Z" fill="white"/>
<path d="M83.6667 73C77.7733 73 73 77.7733 73 83.6667C73 85.6667 73.56 87.56 74.5467 89.16C76.3867 92.2533 79.7733 94.3333 83.6667 94.3333C87.56 94.3333 90.9467 92.2533 92.7867 89.16C93.7733 87.56 94.3333 85.6667 94.3333 83.6667C94.3333 77.7733 89.56 73 83.6667 73ZM89.1867 82.52L83.5067 87.7733C83.1333 88.12 82.6267 88.3067 82.1467 88.3067C81.64 88.3067 81.1333 88.12 80.7333 87.72L78.0933 85.08C77.32 84.3067 77.32 83.0267 78.0933 82.2533C78.8667 81.48 80.1467 81.48 80.92 82.2533L82.2 83.5333L86.4667 79.5867C87.2667 78.84 88.5467 78.8933 89.2933 79.6933C90.04 80.4933 89.9867 81.7467 89.1867 82.52Z" fill="white"/>
<path d="M86.3333 59.24H43.6667C42.2 59.24 41 60.44 41 61.9067V78.3333C41 86.3333 45 91.6667 54.3333 91.6667H67.48C69.32 91.6667 70.6 89.88 70.0133 88.1467C69.48 86.6 69.0267 84.8933 69.0267 83.6667C69.0267 75.5867 75.6133 69 83.6933 69C84.4667 69 85.24 69.0533 85.9867 69.1867C87.5867 69.4267 89.0267 68.1733 89.0267 66.5733V61.9333C89 60.44 87.8 59.24 86.3333 59.24ZM57.56 81.56C57.0533 82.04 56.36 82.3333 55.6667 82.3333C54.9733 82.3333 54.28 82.04 53.7733 81.56C53.2933 81.0533 53 80.36 53 79.6667C53 78.9733 53.2933 78.28 53.7733 77.7733C54.04 77.5333 54.3067 77.3467 54.6533 77.2133C55.64 76.7867 56.8133 77.0267 57.56 77.7733C58.04 78.28 58.3333 78.9733 58.3333 79.6667C58.3333 80.36 58.04 81.0533 57.56 81.56ZM57.56 72.2267C57.4267 72.3333 57.2933 72.44 57.16 72.5467C57 72.6533 56.84 72.7333 56.68 72.7867C56.52 72.8667 56.36 72.92 56.2 72.9467C56.0133 72.9733 55.8267 73 55.6667 73C54.9733 73 54.28 72.7067 53.7733 72.2267C53.2933 71.72 53 71.0267 53 70.3333C53 69.64 53.2933 68.9467 53.7733 68.44C54.3867 67.8267 55.32 67.5333 56.2 67.72C56.36 67.7467 56.52 67.8 56.68 67.88C56.84 67.9333 57 68.0133 57.16 68.12C57.2933 68.2267 57.4267 68.3333 57.56 68.44C58.04 68.9467 58.3333 69.64 58.3333 70.3333C58.3333 71.0267 58.04 71.72 57.56 72.2267ZM66.8933 72.2267C66.3867 72.7067 65.6933 73 65 73C64.3067 73 63.6133 72.7067 63.1067 72.2267C62.6267 71.72 62.3333 71.0267 62.3333 70.3333C62.3333 69.64 62.6267 68.9467 63.1067 68.44C64.12 67.4533 65.9067 67.4533 66.8933 68.44C67.3733 68.9467 67.6667 69.64 67.6667 70.3333C67.6667 71.0267 67.3733 71.72 66.8933 72.2267Z" fill="white"/>
<circle cx="65" cy="65" r="64" stroke="#00D0E9" stroke-width="2" stroke-dasharray="7 7"/>
</svg>
