<svg width="130" height="130" viewBox="0 0 130 130" fill="none" xmlns="http://www.w3.org/2000/svg">
<circle cx="65" cy="65" r="64" stroke="#00D0E9" stroke-width="2" stroke-dasharray="7 7"/>
<path d="M53.6667 42.3334V38.3334C53.6667 37.24 52.7601 36.3334 51.6667 36.3334C50.5734 36.3334 49.6667 37.24 49.6667 38.3334V42.4934C50.3334 42.4134 50.9467 42.3334 51.6667 42.3334H53.6667Z" fill="white"/>
<path d="M75 42.4934V38.3334C75 37.24 74.0933 36.3334 73 36.3334C71.9067 36.3334 71 37.24 71 38.3334V42.3334H73C73.72 42.3334 74.3333 42.4134 75 42.4934Z" fill="white"/>
<path d="M89.7733 72.92C87.7199 71.2934 85.1333 70.3334 82.3333 70.3334C79.5333 70.3334 76.8933 71.32 74.8399 72.9734C72.0666 75.16 70.3333 78.5734 70.3333 82.3334C70.3333 84.5734 70.9733 86.7334 72.0666 88.4934C72.9199 89.88 74.0133 91.1067 75.3199 92.04C77.2933 93.48 79.6933 94.3334 82.3333 94.3334C85.3733 94.3334 88.1199 93.2134 90.2266 91.3467C91.1599 90.5734 91.9599 89.6134 92.5999 88.52C93.6933 86.7334 94.3333 84.5734 94.3333 82.3334C94.3333 78.52 92.5466 75.1067 89.7733 72.92ZM82.3333 88.04C82.3333 84.8934 79.7733 82.3334 76.6266 82.3334C79.7733 82.3334 82.3333 79.7734 82.3333 76.6267C82.3333 79.7734 84.8933 82.3334 88.0399 82.3334C84.8933 82.3334 82.3333 84.8934 82.3333 88.04Z" fill="white"/>
<path d="M74.9999 42.4934V46.3334C74.9999 47.4267 74.0933 48.3334 72.9999 48.3334C71.9066 48.3334 70.9999 47.4267 70.9999 46.3334V42.3334H53.6666V46.3334C53.6666 47.4267 52.7599 48.3334 51.6666 48.3334C50.5733 48.3334 49.6666 47.4267 49.6666 46.3334V42.4934C41.7999 43.2134 38.3333 48.28 38.3333 55.6667V78.3334C38.3333 86.3334 42.3333 91.6667 51.6666 91.6667H62.6799C64.7066 91.6667 66.0666 89.4 65.5599 87.4267C65.1866 85.9867 64.9999 84.4934 64.9999 83C64.9999 77.4534 67.4799 72.3334 71.7733 68.9467C74.8933 66.4134 78.8933 65 82.9999 65H83.1066C84.7866 65 86.3333 63.7734 86.3333 62.0934V55.6667C86.3333 48.28 82.8666 43.2134 74.9999 42.4934ZM56.9999 77.6667H51.6666C50.5733 77.6667 49.6666 76.76 49.6666 75.6667C49.6666 74.5734 50.5733 73.6667 51.6666 73.6667H56.9999C58.0933 73.6667 58.9999 74.5734 58.9999 75.6667C58.9999 76.76 58.0933 77.6667 56.9999 77.6667ZM64.9999 64.3334H51.6666C50.5733 64.3334 49.6666 63.4267 49.6666 62.3334C49.6666 61.24 50.5733 60.3334 51.6666 60.3334H64.9999C66.0933 60.3334 66.9999 61.24 66.9999 62.3334C66.9999 63.4267 66.0933 64.3334 64.9999 64.3334Z" fill="white"/>
</svg>
