<svg width="130" height="130" viewBox="0 0 130 130" fill="none" xmlns="http://www.w3.org/2000/svg">
<circle cx="65" cy="65" r="64" stroke="#00D0E9" stroke-width="2" stroke-dasharray="7 7"/>
<path d="M64.9999 38.3334C50.3066 38.3334 38.3333 50.3067 38.3333 65C38.3333 79.6934 50.3066 91.6667 64.9999 91.6667C79.6933 91.6667 91.6666 79.6934 91.6666 65C91.6666 50.3067 79.6933 38.3334 64.9999 38.3334ZM77.7466 58.8667L62.6266 73.9867C62.2533 74.36 61.7466 74.5734 61.2133 74.5734C60.6799 74.5734 60.1733 74.36 59.7999 73.9867L52.2533 66.44C51.4799 65.6667 51.4799 64.3867 52.2533 63.6134C53.0266 62.84 54.3066 62.84 55.0799 63.6134L61.2133 69.7467L74.9199 56.04C75.6933 55.2667 76.9733 55.2667 77.7466 56.04C78.5199 56.8134 78.5199 58.0667 77.7466 58.8667Z" fill="white"/>
</svg>
